<?xml version="1.0" standalone="no"?>
<!DOCTYPE svg PUBLIC "-//W3C//DTD SVG 20010904//EN"
 "http://www.w3.org/TR/2001/REC-SVG-20010904/DTD/svg10.dtd">
<svg version="1.0" xmlns="http://www.w3.org/2000/svg"
 width="512.000000pt" height="512.000000pt" viewBox="0 0 512.000000 512.000000"
 preserveAspectRatio="xMidYMid meet">
<metadata>
Created by potrace 1.14, written by Peter Selinger 2001-2017
</metadata>
<g transform="translate(0.000000,512.000000) scale(0.100000,-0.100000)"
fill="#000000" stroke="none">
<path d="M415 5110 c-183 -38 -330 -170 -391 -350 -18 -53 -19 -134 -19 -2200
0 -2066 1 -2147 19 -2200 52 -154 168 -274 322 -332 l59 -23 2155 0 2155 0 59
23 c154 58 270 178 322 332 18 53 19 134 19 2200 0 2066 -1 2147 -19 2200 -52
154 -168 274 -322 332 l-59 23 -2130 1 c-1172 1 -2148 -2 -2170 -6z m2165
-1045 c138 -42 246 -131 300 -248 42 -89 71 -230 78 -383 l7 -132 55 66 c114
136 260 233 400 266 132 31 312 16 411 -35 51 -25 124 -92 154 -139 69 -110
101 -281 91 -495 -10 -219 -34 -357 -151 -850 -36 -154 -71 -314 -77 -355 -20
-134 7 -213 77 -226 70 -13 159 52 410 297 99 97 189 181 199 186 53 29 79
-14 84 -137 3 -84 1 -103 -22 -164 -60 -157 -234 -363 -397 -469 -194 -126
-323 -170 -504 -171 -112 -1 -124 1 -182 28 -148 68 -235 233 -219 411 11 123
36 232 131 580 160 586 197 798 164 920 -21 77 -65 102 -152 83 -244 -51 -609
-651 -716 -1178 -31 -153 -44 -315 -32 -390 19 -116 14 -218 -14 -278 -50
-108 -177 -198 -314 -223 -62 -11 -75 -10 -116 6 -92 35 -131 145 -122 340 7
144 21 206 160 715 166 609 205 800 214 1044 10 270 -33 383 -155 406 -191 34
-409 -152 -581 -498 -116 -232 -234 -590 -316 -957 -30 -134 -30 -144 8 -345
40 -212 49 -300 37 -374 -25 -156 -70 -207 -257 -290 -158 -71 -250 -70 -316
3 -52 58 -68 122 -74 289 -9 238 36 598 153 1238 36 197 79 433 95 524 39 213
38 352 -3 442 -41 89 -109 119 -192 84 -18 -7 -76 -46 -129 -85 -139 -103
-203 -124 -242 -81 -43 48 -24 209 37 302 69 109 224 214 383 260 68 19 102
23 225 22 126 0 152 -3 201 -22 143 -57 226 -188 244 -387 4 -44 11 -89 15
-100 6 -17 9 -16 25 15 40 78 123 190 199 268 121 125 239 196 380 228 78 18
270 12 346 -11z"/>
</g>
</svg>
