<svg width="59" height="59" viewBox="0 0 59 59" fill="none" xmlns="http://www.w3.org/2000/svg">
<path fill-rule="evenodd" clip-rule="evenodd" d="M17.24 0.176C20.368 0.032 21.3653 0 29.3333 0C37.3013 0 38.2987 0.0346666 41.424 0.176C44.5493 0.317333 46.6827 0.816 48.5493 1.53867C50.504 2.27733 52.2773 3.432 53.744 4.92533C55.2373 6.38933 56.3893 8.16 57.1253 10.1173C57.8507 11.984 58.3467 14.1173 58.4907 17.2373C58.6347 20.3707 58.6667 21.368 58.6667 29.3333C58.6667 37.3013 58.632 38.2987 58.4907 41.4267C58.3493 44.5467 57.8507 46.68 57.1253 48.5467C56.3893 50.5042 55.2354 52.2779 53.744 53.744C52.2773 55.2373 50.504 56.3893 48.5493 57.1253C46.6827 57.8507 44.5493 58.3467 41.4293 58.4907C38.2987 58.6347 37.3013 58.6667 29.3333 58.6667C21.3653 58.6667 20.368 58.632 17.24 58.4907C14.12 58.3493 11.9867 57.8507 10.12 57.1253C8.16245 56.3892 6.38885 55.2353 4.92267 53.744C3.43035 52.2791 2.27551 50.5064 1.53867 48.5493C0.816 46.6827 0.32 44.5493 0.176 41.4293C0.032 38.296 0 37.2987 0 29.3333C0 21.3653 0.0346666 20.368 0.176 17.2427C0.317333 14.1173 0.816 11.984 1.53867 10.1173C2.27659 8.16022 3.43232 6.3875 4.92533 4.92267C6.38944 3.43067 8.16126 2.27585 10.1173 1.53867C11.984 0.816 14.1173 0.32 17.2373 0.176H17.24ZM41.1867 5.456C38.0933 5.31467 37.1653 5.28533 29.3333 5.28533C21.5013 5.28533 20.5733 5.31467 17.48 5.456C14.6187 5.58667 13.0667 6.064 12.032 6.46667C10.664 7 9.68533 7.632 8.65867 8.65867C7.68545 9.60547 6.93648 10.7581 6.46667 12.032C6.064 13.0667 5.58667 14.6187 5.456 17.48C5.31467 20.5733 5.28533 21.5013 5.28533 29.3333C5.28533 37.1653 5.31467 38.0933 5.456 41.1867C5.58667 44.048 6.064 45.6 6.46667 46.6347C6.936 47.9067 7.68533 49.0613 8.65867 50.008C9.60533 50.9813 10.76 51.7307 12.032 52.2C13.0667 52.6027 14.6187 53.08 17.48 53.2107C20.5733 53.352 21.4987 53.3813 29.3333 53.3813C37.168 53.3813 38.0933 53.352 41.1867 53.2107C44.048 53.08 45.6 52.6027 46.6347 52.2C48.0027 51.6667 48.9813 51.0347 50.008 50.008C50.9813 49.0613 51.7307 47.9067 52.2 46.6347C52.6027 45.6 53.08 44.048 53.2107 41.1867C53.352 38.0933 53.3813 37.1653 53.3813 29.3333C53.3813 21.5013 53.352 20.5733 53.2107 17.48C53.08 14.6187 52.6027 13.0667 52.2 12.032C51.6667 10.664 51.0347 9.68533 50.008 8.65867C49.0611 7.68552 47.9085 6.93656 46.6347 6.46667C45.6 6.064 44.048 5.58667 41.1867 5.456ZM25.5867 38.376C27.6791 39.247 30.009 39.3646 32.1785 38.7086C34.3479 38.0526 36.2224 36.6638 37.4816 34.7793C38.7409 32.8948 39.3068 30.6317 39.0828 28.3763C38.8588 26.1209 37.8587 24.0133 36.2533 22.4133C35.23 21.3906 33.9926 20.6075 32.6302 20.1204C31.2679 19.6333 29.8145 19.4543 28.3747 19.5963C26.9348 19.7383 25.5444 20.1978 24.3035 20.9417C23.0625 21.6856 22.002 22.6953 21.1981 23.8983C20.3943 25.1012 19.8672 26.4674 19.6547 27.8986C19.4422 29.3297 19.5497 30.7901 19.9694 32.1747C20.3891 33.5593 21.1106 34.8336 22.0819 35.9059C23.0532 36.9782 24.2502 37.8218 25.5867 38.376ZM18.672 18.672C20.0721 17.2719 21.7342 16.1613 23.5635 15.4036C25.3927 14.6459 27.3533 14.2559 29.3333 14.2559C31.3133 14.2559 33.2739 14.6459 35.1032 15.4036C36.9325 16.1613 38.5946 17.2719 39.9947 18.672C41.3947 20.0721 42.5053 21.7342 43.263 23.5635C44.0207 25.3927 44.4107 27.3533 44.4107 29.3333C44.4107 31.3133 44.0207 33.2739 43.263 35.1032C42.5053 36.9325 41.3947 38.5946 39.9947 39.9947C37.1671 42.8222 33.3321 44.4107 29.3333 44.4107C25.3346 44.4107 21.4996 42.8222 18.672 39.9947C15.8444 37.1671 14.2559 33.3321 14.2559 29.3333C14.2559 25.3346 15.8444 21.4996 18.672 18.672ZM47.7547 16.5013C48.1016 16.174 48.3794 15.7805 48.5715 15.3439C48.7636 14.9074 48.8662 14.4367 48.8731 13.9598C48.8801 13.4829 48.7913 13.0095 48.6119 12.5675C48.4326 12.1255 48.1665 11.724 47.8292 11.3868C47.492 11.0495 47.0905 10.7834 46.6485 10.604C46.2065 10.4247 45.7331 10.3359 45.2562 10.3429C44.7793 10.3498 44.3086 10.4524 43.8721 10.6445C43.4355 10.8366 43.0419 11.1144 42.7147 11.4613C42.0782 12.1361 41.7297 13.0323 41.7432 13.9598C41.7567 14.8873 42.1312 15.773 42.7871 16.4289C43.443 17.0848 44.3287 17.4593 45.2562 17.4728C46.1837 17.4863 47.0799 17.1378 47.7547 16.5013Z" fill="white"/>
</svg>
