<svg width="27" height="29" viewBox="0 0 27 29" fill="none" xmlns="http://www.w3.org/2000/svg">
<path d="M1 6.4H3.77778M3.77778 6.4H26M3.77778 6.4V25.3C3.77778 26.0161 4.07044 26.7028 4.59137 27.2092C5.1123 27.7155 5.81884 28 6.55556 28H20.4444C21.1812 28 21.8877 27.7155 22.4086 27.2092C22.9296 26.7028 23.2222 26.0161 23.2222 25.3V6.4H3.77778ZM7.94444 6.4V3.7C7.94444 2.98392 8.2371 2.29716 8.75804 1.79081C9.27897 1.28446 9.98551 1 10.7222 1H16.2778C17.0145 1 17.721 1.28446 18.242 1.79081C18.7629 2.29716 19.0556 2.98392 19.0556 3.7V6.4M10.7222 13.15V21.25M16.2778 13.15V21.25" stroke="#F9B300" stroke-width="1.5" stroke-linecap="round" stroke-linejoin="round"/>
</svg>
